HIERARCHY
ROOT Hips
{
  OFFSET 1.98453 109.516 -51.4922
  CHANNELS 6 Xposition Yposition Zposition Zrotation Xrotation Yrotation
  JOINT RightUpLeg
  {
    OFFSET -8.9458 -8.66707 0.101652
    CHANNELS 3 Zrotation Xrotation Yrotation
    JOINT RightLeg
    {
      OFFSET 0 -44.4227 1.3727
      CHANNELS 3 Zrotation Xrotation Yrotation
      JOINT RightFoot
      {
        OFFSET 0.558402 -42.72 1.56801
        CHANNELS 3 Zrotation Xrotation Yrotation
        JOINT RightToes
        {
          OFFSET 0.04 -4.41509 8.4991
          CHANNELS 3 Zrotation Xrotation Yrotation
          End Site
          {
            OFFSET -0.08 -0.137448 9.77979
          }
        }
      }
    }
  }
  JOINT Spine
  {
    OFFSET 0 11.8905 0
    CHANNELS 3 Zrotation Xrotation Yrotation
    JOINT Spine1
    {
      OFFSET 0 25.6574 0.127663
      CHANNELS 3 Zrotation Xrotation Yrotation
      JOINT HEad
      {
        OFFSET 0 8.73416 0.011341
        CHANNELS 3 Zrotation Xrotation Yrotation
        End Site
        {
          OFFSET -0.29 12.7742 2.51395
        }
      }
      JOINT LeftShoulder1
      {
        OFFSET 8.99 -0.362252 -0.22
        CHANNELS 3 Zrotation Xrotation Yrotation
        JOINT LeftArm
        {
          OFFSET 10.2827 -0.00338 0.322123
          CHANNELS 3 Zrotation Xrotation Yrotation
          JOINT LeftForeArm
          {
            OFFSET 32.7669 0.099144 -1.42434
            CHANNELS 3 Zrotation Xrotation Yrotation
            JOINT LeftHand
            {
              OFFSET 27.5643 0.085362 1.02216
              CHANNELS 3 Zrotation Xrotation Yrotation
              End Site
              {
                OFFSET 16.7443 -0.6 1.50291
              }
            }
          }
        }
      }
      JOINT RightShoulder
      {
        OFFSET -8.99 -0.362252 -0.22
        CHANNELS 3 Zrotation Xrotation Yrotation
        JOINT RightArm
        {
          OFFSET -10.2827 -0.00338 0.322123
          CHANNELS 3 Zrotation Xrotation Yrotation
          JOINT RightForeArm
          {
            OFFSET -32.8971 0.099144 -1.42434
            CHANNELS 3 Zrotation Xrotation Yrotation
            JOINT RightHand
            {
              OFFSET -27.4921 0.085362 1.02216
              CHANNELS 3 Zrotation Xrotation Yrotation
              End Site
              {
                OFFSET -16.6312 -0.6 1.50291
              }
            }
          }
        }
      }
    }
  }
  JOINT LeftUpLeg
  {
    OFFSET 8.9458 -8.66707 0.101652
    CHANNELS 3 Zrotation Xrotation Yrotation
    JOINT LeftLeg
    {
      OFFSET 0 -44.4227 1.3727
      CHANNELS 3 Zrotation Xrotation Yrotation
      JOINT LeftFoot
      {
        OFFSET -0.253549 -42.0924 -1.46059
        CHANNELS 3 Zrotation Xrotation Yrotation
        JOINT LeftToes
        {
          OFFSET -0.04 -4.41509 8.4991
          CHANNELS 3 Zrotation Xrotation Yrotation
          End Site
          {
            OFFSET 0.08 -0.047448 9.77979
          }
        }
      }
    }
  }
}
MOTION
Frames:	19
Frame Time:	0.0166667
4.60496 103.101 -71.742 76.456 75.2819 160.117 -73.5092 2.46831 -17.0781 119.053 16.0637 -97.746 -22.1138 17.2447 8.54414 0.0462048 0.000533403 0.662642 33.6455 54.8246 -26.0343 1.68945 4.03439 2.10108 25.4215 20.3236 -21.8009 1.39149e-015 3.18055e-015 -7.95139e-016 -102.43 -4.3166 -63.6627 -71.0911 39.851 -42.055 15.2092 26.5119 -15.5027 41.2607 1.29577 -5.39586 113.737 -56.2006 133.685 20.4623 29.0985 52.5697 16.421 29.9878 3.62095 74.3295 30.8188 -64.8484 -19.46 39.0244 79.3421 -16.2699 -5.82807 -5.43022 4.17973e-010 1.55999e-007 -4.85536e-009 
4.34851 102.759 -70.491 69.4116 75.0019 165.863 -70.4336 -0.966184 -19.6597 124.538 22.3627 -100.63 -17.7706 16.4871 3.76631 0.0462048 0.000533403 0.662642 32.8098 54.027 -25.6273 1.63361 3.90296 2.02943 27.304 22.5233 -22.6743 -6.55989e-015 1.59028e-015 -1.59028e-015 -102.302 -3.89647 -63.7743 -70.0073 39.7713 -42.5499 15.0479 26.6744 -15.513 40.4614 1.59291 -5.68238 114.042 -55.9373 132.804 21.8331 30.4578 52.9949 16.4295 29.9841 3.30614 72.1637 29.0802 -62.8115 -25.2792 39.7016 83.35 -16.6496 -7.37687 -8.25116 4.17969e-010 1.55999e-007 -4.85536e-009 
4.10464 102.51 -69.21 62.2916 74.3962 171.796 -65.1628 -5.96572 -23.6561 130.06 29.2401 -107.452 -12.5039 13.7496 -0.603158 0.0462048 0.000533403 0.662642 31.5265 52.6308 -24.7653 1.57487 3.76349 1.95333 29.1421 24.6719 -23.9009 -8.94531e-015 -1.59028e-015 7.95139e-016 -101.949 -3.50911 -63.5615 -69.0435 39.5916 -42.8973 14.867 26.8448 -15.3868 39.8867 2.21695 -6.40038 114.317 -55.5927 131.993 23.3243 31.9577 53.2866 16.362 29.9117 3.02224 70.0408 27.6564 -60.8581 -30.0593 39.7397 86.7628 -16.9649 -8.58147 -10.7181 4.17969e-010 1.55999e-007 -4.85536e-009 
3.75649 102.247 -67.6688 51.4269 71.8155 -178.757 -57.8105 -12.4515 -28.6954 135.232 37.6775 -116.566 -4.68928 9.00287 -4.55098 0.0462048 0.000533403 0.662642 28.4289 48.9823 -22.4462 1.51289 3.61666 1.87333 30.8648 26.6913 -25.3847 -1.19271e-015 1.59028e-015 -3.18055e-015 -101.474 -3.33902 -63.1081 -68.4 39.4098 -42.9396 14.7936 27.0436 -15.2247 39.5012 3.14329 -7.47088 114.561 -55.1131 131.213 24.9136 33.5759 53.4386 16.137 29.7227 2.67608 66.0762 25.725 -56.5855 -34.1864 39.2457 89.2808 -16.809 -9.82221 -13.1337 4.17968e-010 1.55999e-007 -4.85535e-009 
3.44147 101.83 -66.2207 43.8719 68.8789 -172.648 -47.9723 -19.3635 -34.0662 143.36 46.0257 -130.429 2.47009 3.93369 -8.64439 0.0462048 0.000533403 0.662642 25.7817 45.184 -20.4585 1.44794 3.46318 1.78998 32.3635 28.5389 -27.0099 -4.37326e-015 3.18055e-015 1.59028e-015 -100.986 -3.57032 -62.4981 -68.2503 39.3233 -42.5364 14.8534 27.258 -15.0761 39.2237 4.34478 -8.80308 114.791 -54.4554 130.414 26.5772 35.2906 53.4514 15.743 29.4523 2.40312 62.3459 24.016 -52.7568 -37.6734 38.5334 91.4556 -16.7266 -10.8624 -15.1364 4.17971e-010 1.55999e-007 -4.85535e-009 
3.12229 101.369 -64.7505 38.3625 65.6422 -168.643 -36.6854 -26.0512 -39.2421 155.275 53.1228 -149.536 8.89789 -0.525338 -12.2989 0.0462048 0.000533403 0.662642 23.8784 41.5149 -19.1808 1.39441 3.31025 1.70328 33.4337 30.1202 -28.4091 -3.97569e-016 3.18055e-015 -4.77083e-015 -100.73 -4.0946 -62.1641 -68.3573 39.2814 -41.9932 14.9706 27.4652 -14.9364 38.7232 5.47569 -10.0273 114.95 -53.6513 129.462 28.3132 37.0413 53.4385 15.2997 29.1527 2.11919 58.4378 22.3657 -49.1164 -40.4934 37.7615 93.4205 -16.684 -11.6416 -16.685 4.17969e-010 1.55999e-007 -4.85535e-009 
2.79583 101.004 -63.2588 34.3765 62.2068 -166.19 -24.9033 -32.0968 -43.6259 171.399 57.6262 -173.804 14.5667 -3.35847 -15.3638 0.0462048 0.000533403 0.662642 22.5997 38.1244 -18.4522 1.32379 3.13882 1.61509 34.076 31.3783 -29.4747 -3.97569e-016 0 -3.18055e-015 -100.593 -4.98989 -62.2607 -69.0552 40.3386 -40.0876 16.4373 26.6539 -15.7126 38.0377 6.4673 -10.9839 115.112 -52.7229 128.435 30.0946 38.8189 53.356 14.7797 28.7744 1.85585 54.4455 20.6499 -45.7268 -42.7514 36.8904 95.1717 -16.6573 -12.1945 -17.7965 4.17969e-010 1.55999e-007 -4.85535e-009 
2.41764 100.87 -61.7158 31.8878 58.1195 -165.447 -13.0321 -37.7934 -46.7519 -170.409 58.6071 159.326 19.6229 -4.54511 -17.7261 0.0462048 0.000533403 0.662642 21.5641 34.6359 -17.5419 1.24932 2.96566 1.52558 34.2742 32.3576 -30.1613 -3.97569e-015 0 4.77083e-015 -100.542 -6.38404 -62.6618 -70.5026 42.335 -36.88 18.9961 24.9078 -17.278 37.181 7.32696 -11.6406 115.276 -51.6657 127.321 31.9037 40.6286 53.2059 14.172 28.3179 1.64404 50.4457 18.7082 -42.1165 -44.5816 35.6511 96.073 -16.4085 -12.8042 -18.5352 4.17971e-010 1.55999e-007 -4.85536e-009 
2.10103 100.892 -60.0167 29.5538 53.7033 -165.492 -0.311138 -41.2469 -46.9648 -151.221 58.4018 131.006 23.1414 -5.10414 -19.6708 0.0462048 0.000533403 0.662642 20.1464 31.4103 -16.3479 1.16287 2.79067 1.44445 33.774 33.2644 -30.0232 -4.37326e-015 1.59028e-015 -0 -100.839 -9.35648 -64.1398 -72.2131 44.6413 -33.5996 23.7248 27.1388 -18.3914 33.9 11.0778 -10.4382 120.701 -49.7042 128.498 34.1986 43.0226 53.1524 16.5926 24.9844 3.01617 45.9741 16.9096 -38.8331 -45.1323 34.0165 95.847 -16.0348 -12.999 -18.4677 4.17971e-010 1.55999e-007 -4.85535e-009 
1.82614 101.057 -58.3217 27.2448 49.0159 -166.225 11.7747 -42.354 -45.3468 -133.851 55.9356 104.047 26.1529 -4.95743 -20.8475 0.0462048 0.000533403 0.662642 18.3443 28.4365 -14.8856 1.08448 2.6129 1.35212 32.5555 34.1288 -29.0556 1.59028e-015 1.59028e-015 1.59028e-015 -101.701 -13.7079 -66.6093 -74.2671 47.2751 -30.2624 28.94 30.9255 -18.9427 30.7811 13.8276 -9.17384 123.63 -47.0461 126.657 36.9497 45.8864 52.9702 19.8334 20.7966 5.54021 41.2773 15.0858 -35.962 -44.9308 31.9333 94.8128 -15.5833 -12.8097 -17.8225 4.1797e-010 1.55999e-007 -4.85535e-009 
1.5945 101.329 -56.6472 24.8812 44.1222 -167.576 22.4717 -41.5661 -42.8735 -119.893 51.9227 80.3974 27.9978 -4.35938 -21.4223 0.0462048 0.000533403 0.662642 16.1862 25.705 -13.1894 1.00878 2.4322 1.25838 30.6183 34.9209 -27.2701 1.98785e-015 -1.59028e-015 -0 -103.414 -19.1849 -70.0919 -76.74 50.2344 -26.8595 33.5762 35.3214 -18.962 27.7099 15.6852 -7.89101 124.817 -43.7886 122.656 40.2085 49.0337 52.3165 23.0626 16.8285 8.88066 36.4727 13.1436 -33.5368 -44.2715 29.3918 93.2058 -15.102 -12.2421 -16.7275 4.1797e-010 1.55999e-007 -4.85535e-009 
1.43002 101.666 -55.0419 21.6882 38.8696 -170.145 30.5561 -38.8881 -38.9617 -107.105 49.7365 60.3479 23.0129 -3.42838 -21.6175 0.0462048 0.000533403 0.662642 12.698 23.9622 -10.6333 0.934768 2.32308 1.15069 26.1898 35.1502 -22.7136 -9.93923e-016 -1.59028e-015 1.59028e-015 -108.511 -27.3202 -77.3462 -79.5874 54.1335 -23.4117 34.4334 40.2762 -17.9145 25.0127 14.8263 -6.26035 122.221 -39.1695 113.888 44.6795 52.2287 50.5501 25.1371 14.8964 13.5267 31.5435 11.5925 -31.4007 -43.4953 26.1171 90.3184 -15.066 -11.6148 -15.4477 4.17969e-010 1.55999e-007 -4.85535e-009 
1.35734 102.17 -53.4327 17.7923 33.5655 -173.822 34.6516 -34.4087 -34.315 -94.8747 47.8549 43.7754 18.4492 -3.81336 -20.6674 0.0462048 0.000533403 0.662642 8.04608 23.0094 -7.47135 0.859711 2.13727 1.05406 19.7051 34.5959 -16.0093 -2.73329e-015 0 7.95139e-016 -118.217 -35.889 -88.659 -83.6238 58.6841 -19.1819 24.5601 24.5179 -13.9624 22.3273 13.0463 -4.42697 119.648 -32.8981 104.434 50.1465 54.9002 47.5295 26.9987 16.823 15.7748 26.974 10.5607 -29.6674 -42.5708 21.432 85.8509 -15.5027 -10.7237 -13.9912 4.17969e-010 1.55999e-007 -4.85535e-009 
1.36365 102.736 -51.8467 13.2841 28.5409 -178.499 35.2515 -29.5049 -29.2944 -83.1827 46.1908 30.5213 12.6418 -4.74625 -19.2379 0.0462048 0.000533403 0.662642 2.30071 22.6671 -3.91118 0.782716 1.95123 0.95875 11.6622 32.7267 -7.81184 -2.59662e-015 7.95139e-016 9.93923e-017 -133.852 -42.336 -105.12 -89.4517 63.4151 -13.5598 26.0759 39.1225 -14.018 19.9336 10.4445 -2.33702 117.949 -25.6503 95.4916 56.6537 56.8481 43.2907 17.3723 27.5837 5.05838 22.7437 10.0479 -28.1423 -41.487 15.4776 80.1556 -16.6673 -9.61036 -12.4019 4.17971e-010 1.55999e-007 -4.85535e-009 
1.46641 103.327 -50.2564 9.55706 24.3084 177.11 33.4853 -25.6344 -25.1738 -71.9898 44.9216 19.9936 7.1747 -5.90837 -17.6249 0.0462048 0.000533403 0.662642 -2.52934 22.1573 -1.06477 0.69471 1.67202 0.895335 3.17187 30.3825 0.42887 -2.81405e-015 1.49089e-016 -7.95139e-016 -153.328 -44.7141 -124.51 -106.351 63.8262 0.400655 22.6261 21.8784 -12.4814 18.3841 8.30569 -0.681187 117.35 -20.8029 89.7726 60.1973 57.6935 41.0933 19.3284 29.3774 4.79854 19.1086 8.99294 -27.1363 -39.2094 10.6581 73.7407 -19.3875 -8.4185 -10.8389 4.17969e-010 1.55999e-007 -4.85535e-009 
1.57007 103.893 -48.6837 6.57564 20.7597 173.12 30.1494 -23.0108 -21.5815 -60.7252 44.2983 11.2932 1.47607 -7.13003 -16.0066 0.0462048 0.000533403 0.662642 -6.46786 21.6091 1.19794 0.620023 1.49689 0.806309 -3.95301 27.5493 7.17184 -2.43511e-015 0 7.95139e-016 -172.813 -41.7525 -143.628 -124.742 59.1836 15.019 19.4982 27.2466 -12.1674 17.5068 6.48913 0.643955 117.138 -17.4539 85.7327 61.6514 58.3006 40.2747 15.9208 34.4816 0.060925 15.8811 7.51713 -26.5465 -36.105 6.68065 67.5352 -22.8572 -7.29864 -9.38426 4.17983e-010 1.55999e-007 -4.85535e-009 
1.66459 104.389 -47.1932 4.28825 17.8071 169.599 25.5064 -21.4975 -18.4214 -48.1853 44.9795 3.17766 -4.57328 -8.60652 -14.4528 0.0462048 0.000533403 0.662642 -9.59065 21.0956 3.00334 0.550013 1.33202 0.718961 -9.76417 24.6152 12.5873 -1.98785e-016 0 1.59028e-015 175.6 -36.82 -154.842 -133.952 54.388 21.7419 19.1003 18.9851 -12.0134 17.1704 5.07635 1.56061 117.103 -15.0344 82.5551 62.0414 59.1486 40.1793 18.1164 34.2958 0.575413 12.7514 5.64022 -26.0535 -31.6452 4.78464 62.6305 -27.9524 -6.32804 -8.2374 4.1797e-010 1.55999e-007 -4.85535e-009 
1.62139 104.825 -45.8887 2.64326 15.3286 166.546 20.211 -20.4207 -15.4864 -36.1821 45.8184 -4.1165 -9.18555 -10.1711 -12.9756 0.0462048 0.000533403 0.662642 -11.9937 20.6651 4.45059 0.482295 1.17362 0.634207 -14.4086 21.7945 16.9047 -7.95139e-016 -1.59028e-015 1.59028e-015 169.03 -32.3539 -161.288 -138.34 50.4801 24.7928 17.8289 23.2632 -12.3359 17.1846 4.04069 2.22294 117.256 -13.3148 80.0006 61.7691 60.1673 40.4487 16.3099 36.4088 -1.36334 8.65083 3.01151 -25.2576 -24.8555 7.0044 60.1115 -35.7693 -5.37464 -7.50348 4.17969e-010 1.55999e-007 -4.85535e-009 
1.39457 105.12 -44.8507 1.51107 13.2522 163.942 14.1319 -19.3946 -12.6875 -23.348 46.7384 -11.9006 -12.7344 -11.8843 -11.4591 0.0462048 0.000533403 0.662642 -13.6879 19.9546 5.55031 0.417245 1.02651 0.552452 -18.1989 19.5948 20.4875 7.95139e-016 1.59028e-015 4.77083e-015 165.203 -29.3733 -165.246 -140.076 47.6258 26.0438 17.899 19.3819 -12.5183 17.3521 3.72743 2.60203 117.55 -12.1492 77.9108 61.2602 61.345 40.8662 17.6826 35.6754 -0.492473 4.85712 2.2042 -25.1856 -16.1644 7.9137 59.2548 -43.9478 -3.34168 -5.6593 4.17963e-010 1.55999e-007 -4.85535e-009 
